<svg width="170" height="31" viewBox="0 0 170 31" fill="none" xmlns="http://www.w3.org/2000/svg">
<g filter="url(#filter0_d_167_605)">
<path d="M13.9251 3.85958C14.225 2.9393 15.5269 2.9393 15.8267 3.85958L17.5778 9.23398C17.7119 9.64561 18.0957 9.92418 18.5286 9.92418H24.1894C25.1588 9.92418 25.5611 11.1652 24.7761 11.734L20.2012 15.0486C19.8498 15.3033 19.7027 15.7555 19.8371 16.1682L21.5857 21.5349C21.8857 22.4557 20.8325 23.2227 20.0482 22.6544L15.4626 19.3321C15.1126 19.0784 14.6392 19.0784 14.2892 19.3321L9.70366 22.6544C8.91941 23.2227 7.86612 22.4557 8.16614 21.5348L9.91471 16.1682C10.0492 15.7555 9.90209 15.3033 9.55063 15.0486L4.97575 11.734C4.19075 11.1652 4.59308 9.92418 5.56247 9.92418H11.2232C11.6562 9.92418 12.0399 9.64561 12.174 9.23398L13.9251 3.85958Z" fill="#070707"/>
<path d="M49.022 3.85958C49.3219 2.9393 50.6238 2.9393 50.9237 3.85958L52.6748 9.23398C52.8089 9.64561 53.1926 9.92418 53.6256 9.92418H59.2863C60.2557 9.92418 60.658 11.1652 59.873 11.734L55.2982 15.0486C54.9467 15.3033 54.7996 15.7555 54.9341 16.1682L56.6826 21.5349C56.9827 22.4557 55.9294 23.2227 55.1451 22.6544L50.5596 19.3321C50.2095 19.0784 49.7362 19.0784 49.3861 19.3321L44.8006 22.6544C44.0163 23.2227 42.963 22.4557 43.2631 21.5348L45.0116 16.1682C45.1461 15.7555 44.999 15.3033 44.6475 15.0486L40.0727 11.734C39.2877 11.1652 39.69 9.92418 40.6594 9.92418H46.3202C46.7531 9.92418 47.1368 9.64561 47.271 9.23398L49.022 3.85958Z" fill="#070707"/>
<path d="M84.1192 3.85958C84.4191 2.9393 85.721 2.9393 86.0208 3.85958L87.7719 9.23398C87.906 9.64561 88.2898 9.92418 88.7227 9.92418H94.3835C95.3529 9.92418 95.7552 11.1652 94.9702 11.734L90.3953 15.0486C90.0439 15.3033 89.8968 15.7555 90.0312 16.1682L91.7798 21.5349C92.0798 22.4557 91.0265 23.2227 90.2423 22.6544L85.6567 19.3321C85.3067 19.0784 84.8333 19.0784 84.4833 19.3321L79.8978 22.6544C79.1135 23.2227 78.0602 22.4557 78.3602 21.5348L80.1088 16.1682C80.2433 15.7555 80.0962 15.3033 79.7447 15.0486L75.1698 11.734C74.3848 11.1652 74.7872 9.92418 75.7566 9.92418H81.4173C81.8502 9.92418 82.234 9.64561 82.3681 9.23398L84.1192 3.85958Z" fill="#070707"/>
<path d="M154.314 3.85958C154.613 2.9393 155.915 2.9393 156.215 3.85958L157.966 9.23398C158.1 9.64561 158.484 9.92418 158.917 9.92418H164.578C165.547 9.92418 165.95 11.1652 165.165 11.734L160.59 15.0486C160.238 15.3033 160.091 15.7555 160.226 16.1682L161.974 21.5349C162.274 22.4557 161.221 23.2227 160.437 22.6544L155.851 19.3321C155.501 19.0784 155.028 19.0784 154.678 19.3321L150.092 22.6544C149.308 23.2227 148.255 22.4557 148.555 21.5348L150.303 16.1682C150.438 15.7555 150.291 15.3033 149.939 15.0486L145.364 11.734C144.579 11.1652 144.982 9.92418 145.951 9.92418H151.612C152.045 9.92418 152.428 9.64561 152.562 9.23398L154.314 3.85958Z" fill="#E5E5E5"/>
<path d="M119.216 3.85958C119.516 2.9393 120.818 2.9393 121.118 3.85958L122.869 9.23398C123.003 9.64561 123.387 9.92418 123.82 9.92418H129.481C130.45 9.92418 130.852 11.1652 130.067 11.734L125.492 15.0486C125.141 15.3033 124.994 15.7555 125.128 16.1682L126.877 21.5349C127.177 22.4557 126.124 23.2227 125.339 22.6544L120.754 19.3321C120.404 19.0784 119.931 19.0784 119.58 19.3321L114.995 22.6544C114.211 23.2227 113.157 22.4557 113.457 21.5348L115.206 16.1682C115.34 15.7555 115.193 15.3033 114.842 15.0486L110.267 11.734C109.482 11.1652 109.884 9.92418 110.854 9.92418H116.514C116.947 9.92418 117.331 9.64561 117.465 9.23398L119.216 3.85958Z" fill="#070707"/>
</g>
<defs>
<filter id="filter0_d_167_605" x="0.560547" y="3.16895" width="169.019" height="27.6807" filterUnits="userSpaceOnUse" color-interpolation-filters="sRGB">
<feFlood flood-opacity="0" result="BackgroundImageFix"/>
<feColorMatrix in="SourceAlpha" type="matrix" values="0 0 0 0 0 0 0 0 0 0 0 0 0 0 0 0 0 0 127 0" result="hardAlpha"/>
<feOffset dy="4"/>
<feGaussianBlur stdDeviation="2"/>
<feComposite in2="hardAlpha" operator="out"/>
<feColorMatrix type="matrix" values="0 0 0 0 0 0 0 0 0 0 0 0 0 0 0 0 0 0 0.25 0"/>
<feBlend mode="normal" in2="BackgroundImageFix" result="effect1_dropShadow_167_605"/>
<feBlend mode="normal" in="SourceGraphic" in2="effect1_dropShadow_167_605" result="shape"/>
</filter>
</defs>
</svg>
